<svg width="23" height="25" viewBox="0 0 23 25" fill="none" xmlns="http://www.w3.org/2000/svg">
<path d="M22.4781 22.4956L16.9395 16.6938C18.4489 14.7601 19.1909 12.2927 19.0123 9.80197C18.8336 7.31122 17.7479 4.98768 15.9797 3.31195C14.2115 1.63623 11.8961 0.736541 9.51241 0.798974C7.12871 0.861407 4.85911 1.88119 3.17306 3.64738C1.487 5.41357 0.513495 7.79105 0.453895 10.288C0.394296 12.785 1.25316 15.2105 2.85285 17.0628C4.45254 18.915 6.67065 20.0523 9.04839 20.2395C11.4261 20.4266 13.7816 19.6493 15.6275 18.0682L21.1661 23.87C21.3411 24.0471 21.5755 24.145 21.8187 24.1428C22.062 24.1406 22.2948 24.0384 22.4668 23.8582C22.6388 23.678 22.7364 23.4342 22.7385 23.1793C22.7407 22.9245 22.6471 22.6789 22.4781 22.4956ZM9.75956 18.3229C8.29141 18.3229 6.85623 17.8668 5.63551 17.0124C4.41478 16.158 3.46335 14.9435 2.90151 13.5227C2.33968 12.1018 2.19267 10.5383 2.47909 9.02994C2.76552 7.52156 3.4725 6.13602 4.51064 5.04854C5.54877 3.96105 6.87144 3.22047 8.31138 2.92043C9.75132 2.6204 11.2439 2.77439 12.6003 3.36293C13.9566 3.95147 15.116 4.94813 15.9316 6.22687C16.7473 7.50562 17.1827 9.00901 17.1827 10.5469C17.1804 12.6085 16.3977 14.585 15.006 16.0428C13.6144 17.5006 11.7276 18.3206 9.75956 18.3229Z" fill="#EC762A"/>
</svg>
